<?xml version="1.0" encoding="UTF-8"?>
<svg version="1.1" xmlns="http://www.w3.org/2000/svg" width="500" height="500">
<path d="M0 0 C2.38098762 2.13817762 4.72462058 4.31132019 7.06640625 6.4921875 C8.41646789 7.66360204 9.77048139 8.8304817 11.12890625 9.9921875 C19.30467088 17.15008585 26.32403632 24.98659911 33.06640625 33.4921875 C33.94046748 34.56456793 34.81549915 35.63615798 35.69140625 36.70703125 C61.72165356 68.80339311 78.41334549 106.96507794 86.06640625 147.4921875 C86.23011719 148.31219238 86.39382813 149.13219727 86.5625 149.97705078 C91.85669079 177.49262295 91.74199609 210.05762025 86.06640625 237.4921875 C85.86772949 238.46994141 85.66905273 239.44769531 85.46435547 240.45507812 C77.35107371 279.22866434 61.79653467 315.37570723 37.06640625 346.4921875 C36.36257813 347.38808594 35.65875 348.28398437 34.93359375 349.20703125 C-7.14551944 401.76821744 -67.48263293 433.93531477 -134.16894531 442.02270508 C-138.92285994 442.54017812 -143.63875314 442.68648233 -148.41796875 442.73046875 C-149.74609085 442.74522751 -149.74609085 442.74522751 -151.1010437 442.76028442 C-204.29862534 443.22887048 -255.40469853 432.02802989 -299.93359375 401.4921875 C-300.54235352 401.07727051 -301.15111328 400.66235352 -301.77832031 400.23486328 C-314.73809233 391.34083504 -326.53785043 381.2958939 -337.93359375 370.4921875 C-339.06474609 369.42484375 -339.06474609 369.42484375 -340.21875 368.3359375 C-345.60768051 363.10771068 -350.26561685 357.36309524 -354.93359375 351.4921875 C-355.80914299 350.41865639 -356.68546792 349.34575753 -357.5625 348.2734375 C-364.72047585 339.44526728 -371.02874082 330.20012936 -376.93359375 320.4921875 C-377.36027344 319.7914209 -377.78695312 319.0906543 -378.2265625 318.36865234 C-392.16838705 295.14478999 -401.11488563 269.53259616 -406.74609375 243.1171875 C-406.94114502 242.20388672 -407.13619629 241.29058594 -407.3371582 240.34960938 C-410.48463652 224.67747206 -411.34431102 209.18934308 -411.30859375 193.2421875 C-411.30771759 192.28096985 -411.30684143 191.3197522 -411.30593872 190.32940674 C-411.19195677 152.22946 -403.09821802 115.61453363 -385.93359375 81.4921875 C-385.55299805 80.73373535 -385.17240234 79.9752832 -384.78027344 79.19384766 C-372.56989419 55.03979721 -356.52657205 34.10405035 -337.93359375 14.4921875 C-336.86625 13.36103516 -336.86625 13.36103516 -335.77734375 12.20703125 C-330.55031899 6.81933974 -324.81683677 2.1429725 -318.93359375 -2.5078125 C-317.94488281 -3.301875 -316.95617187 -4.0959375 -315.9375 -4.9140625 C-287.57458625 -27.29279095 -254.87846283 -42.62198301 -219.93359375 -51.5078125 C-218.74121094 -51.81332031 -217.54882812 -52.11882813 -216.3203125 -52.43359375 C-212.87062259 -53.23920996 -209.42267815 -53.89466796 -205.93359375 -54.5078125 C-204.88461914 -54.71083984 -204.88461914 -54.71083984 -203.81445312 -54.91796875 C-132.59878829 -68.32753414 -54.8661818 -46.9029144 0 0 Z " fill="#A76BE1" transform="translate(410.93359375,57.5078125)"/>
<path d="M0 0 C11.43636137 10.7417801 20.84180029 24.81220892 21.36328125 40.91015625 C21.36197247 42.96100694 21.34488464 45.0119046 21.3125 47.0625 C21.31733398 48.59874023 21.31733398 48.59874023 21.32226562 50.16601562 C21.21357895 65.62916459 16.25339525 79.26060544 6 91 C-7.18643976 103.79281469 -22.25261455 106.41873261 -39.84375 106.36352539 C-54.11699734 106.14606327 -65.67345604 102.8018198 -76.35546875 92.79296875 C-81.9061243 86.85811481 -85.77155604 81.11348073 -85.5703125 72.71875 C-84.65060818 68.33440613 -82.50541394 64.50660137 -80.51269531 60.52954102 C-77.31253613 53.96921469 -76.74641079 49.69112379 -79.125 42.6875 C-81.51663123 39.25949523 -83.18021798 37.77347022 -87 36 C-92.29860016 35.22728748 -96.56580131 35.32201516 -101.4375 37.625 C-106.39689264 42.22151025 -108.67564051 46.40424336 -109.2734375 53.03125 C-109.60541574 64.36958358 -107.26005751 72.62198296 -99.75 81.25 C-98.1912101 82.85750208 -96.60826302 84.4419952 -95 86 C-94.29875 86.68707031 -93.5975 87.37414062 -92.875 88.08203125 C-83.10388343 97.1885682 -71.51242384 104.05438909 -60.05389404 110.80056763 C-35.1884617 125.45679776 -11.28821188 140.38365019 6 164 C6.91458984 165.24136719 6.91458984 165.24136719 7.84765625 166.5078125 C22.17542157 186.9551093 23.98169418 213.16693825 19.87280273 237.25268555 C16.11026464 256.12811575 7.28002031 271.13132631 -6 285 C-6.93585938 286.03060547 -6.93585938 286.03060547 -7.890625 287.08203125 C-13.52011865 293.07815159 -20.10629901 297.59296944 -27 302 C-28.05960938 302.68191406 -29.11921875 303.36382812 -30.2109375 304.06640625 C-40.23885087 310.15223016 -50.94894173 314.15457636 -62 318 C-63.15757812 318.4125 -64.31515625 318.825 -65.5078125 319.25 C-68.97320608 320.36170521 -72.44469709 321.24048778 -76 322 C-76.82886719 322.18046875 -77.65773438 322.3609375 -78.51171875 322.546875 C-124.61180687 332.0626533 -178.20332824 328.41507593 -218.9375 303.5 C-233.06084666 294.01385412 -247.25682413 281.78128075 -256 267 C-256.79277344 265.66195312 -256.79277344 265.66195312 -257.6015625 264.296875 C-260.94983825 258.39203403 -263.83386734 252.43574124 -266 246 C-266.37382812 244.89785156 -266.74765625 243.79570312 -267.1328125 242.66015625 C-273.43107818 221.32092743 -271.40814188 198.26253496 -261.20507812 178.54296875 C-258.07841298 172.82891649 -254.40076562 167.80872614 -250 163 C-249.39800781 162.30648437 -248.79601562 161.61296875 -248.17578125 160.8984375 C-239.49548305 151.472034 -228.03742676 145.9121637 -216 142 C-215.2678125 141.75378906 -214.535625 141.50757813 -213.78125 141.25390625 C-196.81576736 136.52314667 -176.46252918 140.66830496 -161.26953125 148.875 C-153.85698413 153.69271282 -146.2509969 159.55175722 -143 168 C-142.08208573 173.70803832 -144.44962382 177.13443406 -147.4375 181.75 C-148.26973044 183.07800019 -149.10177054 184.40611969 -149.93359375 185.734375 C-150.61550781 186.81203125 -151.29742187 187.8896875 -152 189 C-154.40343021 193.80686041 -153.79762655 201.20350209 -152.3515625 206.2734375 C-149.94623091 210.98130874 -146.60878068 212.86020897 -142 215 C-135.38987824 217.11862877 -127.00161239 217.00053746 -120.4375 214.8125 C-115.29280988 212.09984521 -112.64956178 208.49509555 -110.55078125 203.06640625 C-108.38649342 194.94648948 -109.98718364 188.30537582 -113.9609375 181.0546875 C-117.6983061 175.45579431 -122.27435765 170.76746219 -127 166 C-127.87785156 165.04867187 -127.87785156 165.04867187 -128.7734375 164.078125 C-133.39304658 159.15366862 -138.78323861 155.154006 -144.10546875 151.03125 C-153.6324218 143.64428666 -163.03589436 136.09289349 -171.88671875 127.90234375 C-173.99796569 125.94587249 -173.99796569 125.94587249 -176.4296875 124.171875 C-179.57263039 121.51613602 -181.94386784 118.56835487 -184.4375 115.3125 C-184.92049561 114.68529053 -185.40349121 114.05808105 -185.90112305 113.41186523 C-187.27608881 111.61429595 -188.63908182 109.80821297 -190 108 C-190.60585937 107.21109375 -191.21171875 106.4221875 -191.8359375 105.609375 C-196.57982678 99.03318986 -199.31323791 91.58475317 -202 84 C-202.34417969 83.04480469 -202.68835938 82.08960938 -203.04296875 81.10546875 C-208.57994364 62.93483285 -205.3456717 41.71414579 -197 25 C-192.24532613 16.17522572 -185.98583193 9.08534521 -179 2 C-177.92105469 0.90171875 -177.92105469 0.90171875 -176.8203125 -0.21875 C-170.35094097 -6.37075614 -162.77530914 -10.71675192 -155 -15 C-154.12988281 -15.4846875 -153.25976562 -15.969375 -152.36328125 -16.46875 C-107.37314175 -39.07249159 -37.93149893 -33.17198747 0 0 Z " fill="#FEFEFE" transform="translate(363,94)"/>
</svg>
